<?xml version="1.0" encoding="UTF-8" standalone="no"?>
<svg
   xmlns:dc="http://purl.org/dc/elements/1.1/"
   xmlns:cc="http://creativecommons.org/ns#"
   xmlns:rdf="http://www.w3.org/1999/02/22-rdf-syntax-ns#"
   xmlns:svg="http://www.w3.org/2000/svg"
   xmlns="http://www.w3.org/2000/svg"
   viewBox="0 0 169.437 138.68825"
   height="138.68825"
   width="169.437"
   xml:space="preserve"
   version="1.1"
   id="svg3366"><metadata
     id="metadata3372"><rdf:RDF><cc:Work
         rdf:about=""><dc:format>image/svg+xml</dc:format><dc:type
           rdf:resource="http://purl.org/dc/dcmitype/StillImage" /><dc:title></dc:title></cc:Work></rdf:RDF></metadata><defs
     id="defs3370"><clipPath
       id="clipPath3380"
       clipPathUnits="userSpaceOnUse"><path
         id="path3382"
         d="m 40.225,65.291 23.773,0 8.242,21.24 48.026,0 -7.608,19.496 -32.809,0 c 0,0 15.598,41.607 16.195,43.144 l 0,0 L 85.583,175.536 40.225,65.291 Z" /></clipPath><linearGradient
       id="linearGradient3388"
       spreadMethod="pad"
       gradientTransform="matrix(0,-114.99892,-114.99892,0,80.245598,179.0361)"
       gradientUnits="userSpaceOnUse"
       y2="0"
       x2="1"
       y1="0"
       x1="0"><stop
         id="stop3390"
         offset="0"
         style="stop-opacity:1;stop-color:#ed1c24" /><stop
         id="stop3392"
         offset="1"
         style="stop-opacity:1;stop-color:#bf1e2d" /></linearGradient><clipPath
       id="clipPath3400"
       clipPathUnits="userSpaceOnUse"><path
         id="path3402"
         d="M 0,216 216,216 216,0 0,0 0,216 Z" /></clipPath></defs><g
     transform="matrix(1.25,0,0,-1.25,-50.28125,220.302)"
     id="g3374"><g
       id="g3376"><g
         clip-path="url(#clipPath3380)"
         id="g3378"><g
           id="g3384"><g
             id="g3386"><path
               id="path3394"
               style="fill:url(#linearGradient3388);stroke:none"
               d="m 40.225,65.291 23.773,0 8.242,21.24 48.026,0 -7.608,19.496 -32.809,0 c 0,0 15.598,41.607 16.195,43.144 l 0,0 L 85.583,175.536 40.225,65.291 Z" /></g></g></g></g><g
       id="g3396"><g
         clip-path="url(#clipPath3400)"
         id="g3398"><g
           transform="translate(156.7456,107.2946)"
           id="g3404"><path
             id="path3406"
             style="fill:#636466;fill-opacity:1;fill-rule:nonzero;stroke:none"
             d="m 0,0 c 13.864,6.291 19.029,18.75 19.029,31.858 0,22.349 -16.325,37.089 -43.588,37.089 l -24.18,0 8.103,-20.605 18.93,0 c 12.046,0 17.91,-7.766 17.91,-16.484 0,-8.401 -5.705,-16.326 -17.91,-16.326 l -6.028,0 22.31,-57.535 22.123,0 L 0,0 Z" /></g></g></g></g></svg>